<?xml version="1.0" encoding="UTF-8" standalone="no"?>
<!DOCTYPE svg PUBLIC "-//W3C//DTD SVG 1.1//EN"
 "http://www.w3.org/Graphics/SVG/1.1/DTD/svg11.dtd">
<!-- Generated by graphviz version 2.43.0 (0)
 -->
<!-- Title: docker_compose Pages: 1 -->
<svg width="772pt" height="422pt"
 viewBox="0.00 0.00 772.00 422.00" xmlns="http://www.w3.org/2000/svg" xmlns:xlink="http://www.w3.org/1999/xlink">
<g id="graph0" class="graph" transform="scale(1 1) rotate(0) translate(4 418)">
<title>docker_compose</title>
<polygon fill="white" stroke="transparent" points="-4,4 -4,-418 768,-418 768,4 -4,4"/>
<!-- video&#45;api -->
<g id="node1" class="node">
<title>video&#45;api</title>
<polygon fill="lightblue" stroke="lightblue" points="81,-279 0,-279 0,-243 81,-243 81,-279"/>
<text text-anchor="middle" x="40.5" y="-257.3" font-family="Times,serif" font-size="14.00">video&#45;api</text>
</g>
<!-- vol::${DATA_ROOT:&#45;./data}:/data:rw -->
<g id="node2" class="node">
<title>vol::${DATA_ROOT:&#45;./data}:/data:rw</title>
<path fill="lightgreen" stroke="lightgreen" d="M446,-410.73C446,-412.53 391.32,-414 324,-414 256.68,-414 202,-412.53 202,-410.73 202,-410.73 202,-381.27 202,-381.27 202,-379.47 256.68,-378 324,-378 391.32,-378 446,-379.47 446,-381.27 446,-381.27 446,-410.73 446,-410.73"/>
<path fill="none" stroke="lightgreen" d="M446,-410.73C446,-408.92 391.32,-407.45 324,-407.45 256.68,-407.45 202,-408.92 202,-410.73"/>
<text text-anchor="middle" x="324" y="-392.3" font-family="Times,serif" font-size="14.00">${DATA_ROOT:&#45;./data}:/data:rw</text>
</g>
<!-- video&#45;api&#45;&gt;vol::${DATA_ROOT:&#45;./data}:/data:rw -->
<g id="edge1" class="edge">
<title>video&#45;api&#45;&gt;vol::${DATA_ROOT:&#45;./data}:/data:rw</title>
<path fill="none" stroke="darkgreen" stroke-dasharray="5,2" d="M48.56,-279.08C59.29,-303.91 82.19,-347.87 117,-369 139.42,-382.61 165.72,-390.66 191.89,-395.22"/>
<polygon fill="darkgreen" stroke="darkgreen" points="191.49,-398.7 201.91,-396.8 192.58,-391.79 191.49,-398.7"/>
</g>
<!-- vol::${INCOMING_ROOT:&#45;./incoming}:/data/_INCOMING:rw -->
<g id="node3" class="node">
<title>vol::${INCOMING_ROOT:&#45;./incoming}:/data/_INCOMING:rw</title>
<path fill="lightgreen" stroke="lightgreen" d="M531,-356.73C531,-358.53 438.22,-360 324,-360 209.78,-360 117,-358.53 117,-356.73 117,-356.73 117,-327.27 117,-327.27 117,-325.47 209.78,-324 324,-324 438.22,-324 531,-325.47 531,-327.27 531,-327.27 531,-356.73 531,-356.73"/>
<path fill="none" stroke="lightgreen" d="M531,-356.73C531,-354.92 438.22,-353.45 324,-353.45 209.78,-353.45 117,-354.92 117,-356.73"/>
<text text-anchor="middle" x="324" y="-338.3" font-family="Times,serif" font-size="14.00">${INCOMING_ROOT:&#45;./incoming}:/data/_INCOMING:rw</text>
</g>
<!-- video&#45;api&#45;&gt;vol::${INCOMING_ROOT:&#45;./incoming}:/data/_INCOMING:rw -->
<g id="edge2" class="edge">
<title>video&#45;api&#45;&gt;vol::${INCOMING_ROOT:&#45;./incoming}:/data/_INCOMING:rw</title>
<path fill="none" stroke="darkgreen" stroke-dasharray="5,2" d="M61.03,-279.12C75.4,-291.35 96.01,-306.72 117,-315 123.48,-317.56 130.16,-319.88 136.96,-321.99"/>
<polygon fill="darkgreen" stroke="darkgreen" points="136.44,-325.48 147.02,-324.94 138.4,-318.77 136.44,-325.48"/>
</g>
<!-- vol::db_wal:/var/lib/thatdamtoolbox/db:rw -->
<g id="node4" class="node">
<title>vol::db_wal:/var/lib/thatdamtoolbox/db:rw</title>
<path fill="lightgreen" stroke="lightgreen" d="M466,-140.73C466,-142.53 402.35,-144 324,-144 245.65,-144 182,-142.53 182,-140.73 182,-140.73 182,-111.27 182,-111.27 182,-109.47 245.65,-108 324,-108 402.35,-108 466,-109.47 466,-111.27 466,-111.27 466,-140.73 466,-140.73"/>
<path fill="none" stroke="lightgreen" d="M466,-140.73C466,-138.92 402.35,-137.45 324,-137.45 245.65,-137.45 182,-138.92 182,-140.73"/>
<text text-anchor="middle" x="324" y="-122.3" font-family="Times,serif" font-size="14.00">db_wal:/var/lib/thatdamtoolbox/db:rw</text>
</g>
<!-- video&#45;api&#45;&gt;vol::db_wal:/var/lib/thatdamtoolbox/db:rw -->
<g id="edge3" class="edge">
<title>video&#45;api&#45;&gt;vol::db_wal:/var/lib/thatdamtoolbox/db:rw</title>
<path fill="none" stroke="darkgreen" stroke-dasharray="5,2" d="M48.56,-242.92C59.29,-218.09 82.19,-174.13 117,-153 133.75,-142.83 152.67,-135.77 172.08,-130.94"/>
<polygon fill="darkgreen" stroke="darkgreen" points="172.98,-134.32 181.95,-128.68 171.42,-127.5 172.98,-134.32"/>
</g>
<!-- vol::/dev:/dev:rw,rshared -->
<g id="node5" class="node">
<title>vol::/dev:/dev:rw,rshared</title>
<path fill="lightgreen" stroke="lightgreen" d="M405.5,-302.73C405.5,-304.53 368.97,-306 324,-306 279.03,-306 242.5,-304.53 242.5,-302.73 242.5,-302.73 242.5,-273.27 242.5,-273.27 242.5,-271.47 279.03,-270 324,-270 368.97,-270 405.5,-271.47 405.5,-273.27 405.5,-273.27 405.5,-302.73 405.5,-302.73"/>
<path fill="none" stroke="lightgreen" d="M405.5,-302.73C405.5,-300.92 368.97,-299.45 324,-299.45 279.03,-299.45 242.5,-300.92 242.5,-302.73"/>
<text text-anchor="middle" x="324" y="-284.3" font-family="Times,serif" font-size="14.00">/dev:/dev:rw,rshared</text>
</g>
<!-- video&#45;api&#45;&gt;vol::/dev:/dev:rw,rshared -->
<g id="edge4" class="edge">
<title>video&#45;api&#45;&gt;vol::/dev:/dev:rw,rshared</title>
<path fill="none" stroke="darkgreen" stroke-dasharray="5,2" d="M81.24,-264.81C120.31,-268.56 181.33,-274.41 232.29,-279.3"/>
<polygon fill="darkgreen" stroke="darkgreen" points="232.05,-282.79 242.34,-280.26 232.72,-275.82 232.05,-282.79"/>
</g>
<!-- vol::./video:/video:rw -->
<g id="node6" class="node">
<title>vol::./video:/video:rw</title>
<path fill="lightgreen" stroke="lightgreen" d="M391,-248.73C391,-250.53 360.97,-252 324,-252 287.03,-252 257,-250.53 257,-248.73 257,-248.73 257,-219.27 257,-219.27 257,-217.47 287.03,-216 324,-216 360.97,-216 391,-217.47 391,-219.27 391,-219.27 391,-248.73 391,-248.73"/>
<path fill="none" stroke="lightgreen" d="M391,-248.73C391,-246.92 360.97,-245.45 324,-245.45 287.03,-245.45 257,-246.92 257,-248.73"/>
<text text-anchor="middle" x="324" y="-230.3" font-family="Times,serif" font-size="14.00">./video:/video:rw</text>
</g>
<!-- video&#45;api&#45;&gt;vol::./video:/video:rw -->
<g id="edge5" class="edge">
<title>video&#45;api&#45;&gt;vol::./video:/video:rw</title>
<path fill="none" stroke="darkgreen" stroke-dasharray="5,2" d="M81.24,-257.19C124.09,-253.08 193.35,-246.43 246.78,-241.31"/>
<polygon fill="darkgreen" stroke="darkgreen" points="247.28,-244.78 256.9,-240.34 246.62,-237.81 247.28,-244.78"/>
</g>
<!-- video&#45;web -->
<g id="node7" class="node">
<title>video&#45;web</title>
<polygon fill="lightblue" stroke="lightblue" points="368.5,-198 279.5,-198 279.5,-162 368.5,-162 368.5,-198"/>
<text text-anchor="middle" x="324" y="-176.3" font-family="Times,serif" font-size="14.00">video&#45;web</text>
</g>
<!-- video&#45;api&#45;&gt;video&#45;web -->
<g id="edge6" class="edge">
<title>video&#45;api&#45;&gt;video&#45;web</title>
<path fill="none" stroke="black" d="M61.03,-242.88C75.4,-230.65 96.01,-215.28 117,-207 166.13,-187.63 226.46,-181.58 269.09,-179.96"/>
<polygon fill="black" stroke="black" points="269.38,-183.45 279.26,-179.64 269.16,-176.45 269.38,-183.45"/>
</g>
<!-- net::damnet -->
<g id="node8" class="node">
<title>net::damnet</title>
<ellipse fill="lightgray" stroke="lightgray" cx="665.5" cy="-261" rx="46.29" ry="18"/>
<text text-anchor="middle" x="665.5" y="-257.3" font-family="Times,serif" font-size="14.00">damnet</text>
</g>
<!-- video&#45;web&#45;&gt;net::damnet -->
<g id="edge7" class="edge">
<title>video&#45;web&#45;&gt;net::damnet</title>
<path fill="none" stroke="gray" stroke-dasharray="1,5" d="M368.84,-179.38C411.7,-180.22 478.06,-185.43 531,-207 549.52,-214.55 549.05,-225.18 567,-234 581.48,-241.12 598.13,-246.6 613.52,-250.71"/>
<polygon fill="gray" stroke="gray" points="612.86,-254.16 623.42,-253.22 614.58,-247.37 612.86,-254.16"/>
</g>
<!-- vol::./docker/web&#45;app:/app:rw -->
<g id="node9" class="node">
<title>vol::./docker/web&#45;app:/app:rw</title>
<path fill="lightgreen" stroke="lightgreen" d="M764,-221.73C764,-223.53 719.85,-225 665.5,-225 611.15,-225 567,-223.53 567,-221.73 567,-221.73 567,-192.27 567,-192.27 567,-190.47 611.15,-189 665.5,-189 719.85,-189 764,-190.47 764,-192.27 764,-192.27 764,-221.73 764,-221.73"/>
<path fill="none" stroke="lightgreen" d="M764,-221.73C764,-219.92 719.85,-218.45 665.5,-218.45 611.15,-218.45 567,-219.92 567,-221.73"/>
<text text-anchor="middle" x="665.5" y="-203.3" font-family="Times,serif" font-size="14.00">./docker/web&#45;app:/app:rw</text>
</g>
<!-- video&#45;web&#45;&gt;vol::./docker/web&#45;app:/app:rw -->
<g id="edge8" class="edge">
<title>video&#45;web&#45;&gt;vol::./docker/web&#45;app:/app:rw</title>
<path fill="none" stroke="darkgreen" stroke-dasharray="5,2" d="M368.69,-183.47C415.95,-187.23 493.07,-193.37 556.72,-198.43"/>
<polygon fill="darkgreen" stroke="darkgreen" points="556.57,-201.93 566.81,-199.23 557.12,-194.95 556.57,-201.93"/>
</g>
<!-- vol::/app/node_modules -->
<g id="node10" class="node">
<title>vol::/app/node_modules</title>
<path fill="lightgreen" stroke="lightgreen" d="M742,-167.73C742,-169.53 707.71,-171 665.5,-171 623.29,-171 589,-169.53 589,-167.73 589,-167.73 589,-138.27 589,-138.27 589,-136.47 623.29,-135 665.5,-135 707.71,-135 742,-136.47 742,-138.27 742,-138.27 742,-167.73 742,-167.73"/>
<path fill="none" stroke="lightgreen" d="M742,-167.73C742,-165.92 707.71,-164.45 665.5,-164.45 623.29,-164.45 589,-165.92 589,-167.73"/>
<text text-anchor="middle" x="665.5" y="-149.3" font-family="Times,serif" font-size="14.00">/app/node_modules</text>
</g>
<!-- video&#45;web&#45;&gt;vol::/app/node_modules -->
<g id="edge9" class="edge">
<title>video&#45;web&#45;&gt;vol::/app/node_modules</title>
<path fill="none" stroke="darkgreen" stroke-dasharray="5,2" d="M368.69,-176.53C421.58,-172.32 511.88,-165.14 578.83,-159.81"/>
<polygon fill="darkgreen" stroke="darkgreen" points="579.26,-163.29 588.95,-159.01 578.7,-156.31 579.26,-163.29"/>
</g>
<!-- vol::/app/.next -->
<g id="node11" class="node">
<title>vol::/app/.next</title>
<path fill="lightgreen" stroke="lightgreen" d="M709.5,-113.73C709.5,-115.53 689.78,-117 665.5,-117 641.22,-117 621.5,-115.53 621.5,-113.73 621.5,-113.73 621.5,-84.27 621.5,-84.27 621.5,-82.47 641.22,-81 665.5,-81 689.78,-81 709.5,-82.47 709.5,-84.27 709.5,-84.27 709.5,-113.73 709.5,-113.73"/>
<path fill="none" stroke="lightgreen" d="M709.5,-113.73C709.5,-111.92 689.78,-110.45 665.5,-110.45 641.22,-110.45 621.5,-111.92 621.5,-113.73"/>
<text text-anchor="middle" x="665.5" y="-95.3" font-family="Times,serif" font-size="14.00">/app/.next</text>
</g>
<!-- video&#45;web&#45;&gt;vol::/app/.next -->
<g id="edge10" class="edge">
<title>video&#45;web&#45;&gt;vol::/app/.next</title>
<path fill="none" stroke="darkgreen" stroke-dasharray="5,2" d="M368.84,-180.62C411.7,-179.78 478.06,-174.57 531,-153 549.52,-145.45 549.05,-134.82 567,-126 580.83,-119.2 596.64,-113.89 611.44,-109.85"/>
<polygon fill="darkgreen" stroke="darkgreen" points="612.68,-113.14 621.49,-107.25 610.93,-106.36 612.68,-113.14"/>
</g>
<!-- video&#45;cli -->
<g id="node12" class="node">
<title>video&#45;cli</title>
<polygon fill="lightblue" stroke="lightblue" points="78.5,-90 2.5,-90 2.5,-54 78.5,-54 78.5,-90"/>
<text text-anchor="middle" x="40.5" y="-68.3" font-family="Times,serif" font-size="14.00">video&#45;cli</text>
</g>
<!-- video&#45;cli&#45;&gt;vol::db_wal:/var/lib/thatdamtoolbox/db:rw -->
<g id="edge13" class="edge">
<title>video&#45;cli&#45;&gt;vol::db_wal:/var/lib/thatdamtoolbox/db:rw</title>
<path fill="none" stroke="darkgreen" stroke-dasharray="5,2" d="M78.66,-87.06C90.72,-91.47 104.28,-95.93 117,-99 134.61,-103.25 153.24,-106.87 171.81,-109.95"/>
<polygon fill="darkgreen" stroke="darkgreen" points="171.38,-113.43 181.81,-111.56 172.49,-106.51 171.38,-113.43"/>
</g>
<!-- vol::/mnt/b/Video/thatdamtoolbox:/data:rw -->
<g id="node13" class="node">
<title>vol::/mnt/b/Video/thatdamtoolbox:/data:rw</title>
<path fill="lightgreen" stroke="lightgreen" d="M468,-86.73C468,-88.53 403.46,-90 324,-90 244.54,-90 180,-88.53 180,-86.73 180,-86.73 180,-57.27 180,-57.27 180,-55.47 244.54,-54 324,-54 403.46,-54 468,-55.47 468,-57.27 468,-57.27 468,-86.73 468,-86.73"/>
<path fill="none" stroke="lightgreen" d="M468,-86.73C468,-84.92 403.46,-83.45 324,-83.45 244.54,-83.45 180,-84.92 180,-86.73"/>
<text text-anchor="middle" x="324" y="-68.3" font-family="Times,serif" font-size="14.00">/mnt/b/Video/thatdamtoolbox:/data:rw</text>
</g>
<!-- video&#45;cli&#45;&gt;vol::/mnt/b/Video/thatdamtoolbox:/data:rw -->
<g id="edge11" class="edge">
<title>video&#45;cli&#45;&gt;vol::/mnt/b/Video/thatdamtoolbox:/data:rw</title>
<path fill="none" stroke="darkgreen" stroke-dasharray="5,2" d="M78.59,-72C102.64,-72 135.75,-72 169.85,-72"/>
<polygon fill="darkgreen" stroke="darkgreen" points="169.96,-75.5 179.96,-72 169.96,-68.5 169.96,-75.5"/>
</g>
<!-- vol::/mnt/b/Video/_INCOMING:/data/_INCOMING:rw -->
<g id="node14" class="node">
<title>vol::/mnt/b/Video/_INCOMING:/data/_INCOMING:rw</title>
<path fill="lightgreen" stroke="lightgreen" d="M502.5,-32.73C502.5,-34.53 422.49,-36 324,-36 225.51,-36 145.5,-34.53 145.5,-32.73 145.5,-32.73 145.5,-3.27 145.5,-3.27 145.5,-1.47 225.51,0 324,0 422.49,0 502.5,-1.47 502.5,-3.27 502.5,-3.27 502.5,-32.73 502.5,-32.73"/>
<path fill="none" stroke="lightgreen" d="M502.5,-32.73C502.5,-30.92 422.49,-29.45 324,-29.45 225.51,-29.45 145.5,-30.92 145.5,-32.73"/>
<text text-anchor="middle" x="324" y="-14.3" font-family="Times,serif" font-size="14.00">/mnt/b/Video/_INCOMING:/data/_INCOMING:rw</text>
</g>
<!-- video&#45;cli&#45;&gt;vol::/mnt/b/Video/_INCOMING:/data/_INCOMING:rw -->
<g id="edge12" class="edge">
<title>video&#45;cli&#45;&gt;vol::/mnt/b/Video/_INCOMING:/data/_INCOMING:rw</title>
<path fill="none" stroke="darkgreen" stroke-dasharray="5,2" d="M78.66,-56.94C90.72,-52.53 104.28,-48.07 117,-45 129.84,-41.9 143.22,-39.14 156.72,-36.67"/>
<polygon fill="darkgreen" stroke="darkgreen" points="157.33,-40.12 166.57,-34.93 156.11,-33.23 157.33,-40.12"/>
</g>
</g>
</svg>
