<?xml version="1.0" encoding="UTF-8" standalone="no"?>
<!DOCTYPE svg PUBLIC "-//W3C//DTD SVG 1.1//EN"
 "http://www.w3.org/Graphics/SVG/1.1/DTD/svg11.dtd">
<!-- Generated by graphviz version 2.43.0 (0)
 -->
<!-- Title: docker_compose Pages: 1 -->
<svg width="715pt" height="287pt"
 viewBox="0.00 0.00 715.00 287.00" xmlns="http://www.w3.org/2000/svg" xmlns:xlink="http://www.w3.org/1999/xlink">
<g id="graph0" class="graph" transform="scale(1 1) rotate(0) translate(4 283)">
<title>docker_compose</title>
<polygon fill="white" stroke="transparent" points="-4,4 -4,-283 711,-283 711,4 -4,4"/>
<!-- video&#45;api -->
<g id="node1" class="node">
<title>video&#45;api</title>
<polygon fill="lightblue" stroke="lightblue" points="81,-144 0,-144 0,-108 81,-108 81,-144"/>
<text text-anchor="middle" x="40.5" y="-122.3" font-family="Times,serif" font-size="14.00">video&#45;api</text>
</g>
<!-- vol::/mnt/b/Video/thatdamtoolbox:/data:rw -->
<g id="node2" class="node">
<title>vol::/mnt/b/Video/thatdamtoolbox:/data:rw</title>
<path fill="lightgreen" stroke="lightgreen" d="M439.5,-167.73C439.5,-169.53 374.96,-171 295.5,-171 216.04,-171 151.5,-169.53 151.5,-167.73 151.5,-167.73 151.5,-138.27 151.5,-138.27 151.5,-136.47 216.04,-135 295.5,-135 374.96,-135 439.5,-136.47 439.5,-138.27 439.5,-138.27 439.5,-167.73 439.5,-167.73"/>
<path fill="none" stroke="lightgreen" d="M439.5,-167.73C439.5,-165.92 374.96,-164.45 295.5,-164.45 216.04,-164.45 151.5,-165.92 151.5,-167.73"/>
<text text-anchor="middle" x="295.5" y="-149.3" font-family="Times,serif" font-size="14.00">/mnt/b/Video/thatdamtoolbox:/data:rw</text>
</g>
<!-- video&#45;api&#45;&gt;vol::/mnt/b/Video/thatdamtoolbox:/data:rw -->
<g id="edge1" class="edge">
<title>video&#45;api&#45;&gt;vol::/mnt/b/Video/thatdamtoolbox:/data:rw</title>
<path fill="none" stroke="darkgreen" stroke-dasharray="5,2" d="M81.03,-130.22C97.96,-132.03 118.93,-134.26 141.04,-136.62"/>
<polygon fill="darkgreen" stroke="darkgreen" points="140.96,-140.13 151.27,-137.71 141.7,-133.17 140.96,-140.13"/>
</g>
<!-- vol::/mnt/b/Video/_INCOMING:/data/_INCOMING:rw -->
<g id="node3" class="node">
<title>vol::/mnt/b/Video/_INCOMING:/data/_INCOMING:rw</title>
<path fill="lightgreen" stroke="lightgreen" d="M474,-221.73C474,-223.53 393.99,-225 295.5,-225 197.01,-225 117,-223.53 117,-221.73 117,-221.73 117,-192.27 117,-192.27 117,-190.47 197.01,-189 295.5,-189 393.99,-189 474,-190.47 474,-192.27 474,-192.27 474,-221.73 474,-221.73"/>
<path fill="none" stroke="lightgreen" d="M474,-221.73C474,-219.92 393.99,-218.45 295.5,-218.45 197.01,-218.45 117,-219.92 117,-221.73"/>
<text text-anchor="middle" x="295.5" y="-203.3" font-family="Times,serif" font-size="14.00">/mnt/b/Video/_INCOMING:/data/_INCOMING:rw</text>
</g>
<!-- video&#45;api&#45;&gt;vol::/mnt/b/Video/_INCOMING:/data/_INCOMING:rw -->
<g id="edge2" class="edge">
<title>video&#45;api&#45;&gt;vol::/mnt/b/Video/_INCOMING:/data/_INCOMING:rw</title>
<path fill="none" stroke="darkgreen" stroke-dasharray="5,2" d="M61.39,-144.24C75.77,-156.37 96.25,-171.57 117,-180 123.31,-182.56 129.83,-184.88 136.48,-186.99"/>
<polygon fill="darkgreen" stroke="darkgreen" points="135.73,-190.42 146.32,-189.91 137.73,-183.71 135.73,-190.42"/>
</g>
<!-- vol::./video:/video:rw -->
<g id="node4" class="node">
<title>vol::./video:/video:rw</title>
<path fill="lightgreen" stroke="lightgreen" d="M362.5,-59.73C362.5,-61.53 332.47,-63 295.5,-63 258.53,-63 228.5,-61.53 228.5,-59.73 228.5,-59.73 228.5,-30.27 228.5,-30.27 228.5,-28.47 258.53,-27 295.5,-27 332.47,-27 362.5,-28.47 362.5,-30.27 362.5,-30.27 362.5,-59.73 362.5,-59.73"/>
<path fill="none" stroke="lightgreen" d="M362.5,-59.73C362.5,-57.92 332.47,-56.45 295.5,-56.45 258.53,-56.45 228.5,-57.92 228.5,-59.73"/>
<text text-anchor="middle" x="295.5" y="-41.3" font-family="Times,serif" font-size="14.00">./video:/video:rw</text>
</g>
<!-- video&#45;api&#45;&gt;vol::./video:/video:rw -->
<g id="edge3" class="edge">
<title>video&#45;api&#45;&gt;vol::./video:/video:rw</title>
<path fill="none" stroke="darkgreen" stroke-dasharray="5,2" d="M61.39,-107.76C75.77,-95.63 96.25,-80.43 117,-72 148.79,-59.08 186.06,-52.28 218.22,-48.73"/>
<polygon fill="darkgreen" stroke="darkgreen" points="218.88,-52.18 228.47,-47.68 218.17,-45.21 218.88,-52.18"/>
</g>
<!-- video&#45;web -->
<g id="node5" class="node">
<title>video&#45;web</title>
<polygon fill="lightblue" stroke="lightblue" points="340,-117 251,-117 251,-81 340,-81 340,-117"/>
<text text-anchor="middle" x="295.5" y="-95.3" font-family="Times,serif" font-size="14.00">video&#45;web</text>
</g>
<!-- video&#45;api&#45;&gt;video&#45;web -->
<g id="edge4" class="edge">
<title>video&#45;api&#45;&gt;video&#45;web</title>
<path fill="none" stroke="black" d="M81.03,-121.78C123.89,-117.21 192.56,-109.88 240.4,-104.77"/>
<polygon fill="black" stroke="black" points="241,-108.23 250.58,-103.69 240.26,-101.27 241,-108.23"/>
</g>
<!-- net::damnet -->
<g id="node6" class="node">
<title>net::damnet</title>
<ellipse fill="lightgray" stroke="lightgray" cx="608.5" cy="-180" rx="46.29" ry="18"/>
<text text-anchor="middle" x="608.5" y="-176.3" font-family="Times,serif" font-size="14.00">damnet</text>
</g>
<!-- video&#45;web&#45;&gt;net::damnet -->
<g id="edge5" class="edge">
<title>video&#45;web&#45;&gt;net::damnet</title>
<path fill="none" stroke="gray" stroke-dasharray="1,5" d="M340.05,-99.73C377,-101.71 430.74,-107.85 474,-126 492.44,-133.74 492.05,-144.18 510,-153 524.48,-160.12 541.13,-165.6 556.52,-169.71"/>
<polygon fill="gray" stroke="gray" points="555.86,-173.16 566.42,-172.22 557.58,-166.37 555.86,-173.16"/>
</g>
<!-- vol::./docker/web&#45;app:/app:rw -->
<g id="node7" class="node">
<title>vol::./docker/web&#45;app:/app:rw</title>
<path fill="lightgreen" stroke="lightgreen" d="M707,-140.73C707,-142.53 662.85,-144 608.5,-144 554.15,-144 510,-142.53 510,-140.73 510,-140.73 510,-111.27 510,-111.27 510,-109.47 554.15,-108 608.5,-108 662.85,-108 707,-109.47 707,-111.27 707,-111.27 707,-140.73 707,-140.73"/>
<path fill="none" stroke="lightgreen" d="M707,-140.73C707,-138.92 662.85,-137.45 608.5,-137.45 554.15,-137.45 510,-138.92 510,-140.73"/>
<text text-anchor="middle" x="608.5" y="-122.3" font-family="Times,serif" font-size="14.00">./docker/web&#45;app:/app:rw</text>
</g>
<!-- video&#45;web&#45;&gt;vol::./docker/web&#45;app:/app:rw -->
<g id="edge6" class="edge">
<title>video&#45;web&#45;&gt;vol::./docker/web&#45;app:/app:rw</title>
<path fill="none" stroke="darkgreen" stroke-dasharray="5,2" d="M340.07,-102.78C381.3,-106.36 444.87,-111.88 499.69,-116.64"/>
<polygon fill="darkgreen" stroke="darkgreen" points="499.55,-120.14 509.81,-117.52 500.15,-113.17 499.55,-120.14"/>
</g>
<!-- vol::/app/node_modules -->
<g id="node8" class="node">
<title>vol::/app/node_modules</title>
<path fill="lightgreen" stroke="lightgreen" d="M685,-86.73C685,-88.53 650.71,-90 608.5,-90 566.29,-90 532,-88.53 532,-86.73 532,-86.73 532,-57.27 532,-57.27 532,-55.47 566.29,-54 608.5,-54 650.71,-54 685,-55.47 685,-57.27 685,-57.27 685,-86.73 685,-86.73"/>
<path fill="none" stroke="lightgreen" d="M685,-86.73C685,-84.92 650.71,-83.45 608.5,-83.45 566.29,-83.45 532,-84.92 532,-86.73"/>
<text text-anchor="middle" x="608.5" y="-68.3" font-family="Times,serif" font-size="14.00">/app/node_modules</text>
</g>
<!-- video&#45;web&#45;&gt;vol::/app/node_modules -->
<g id="edge7" class="edge">
<title>video&#45;web&#45;&gt;vol::/app/node_modules</title>
<path fill="none" stroke="darkgreen" stroke-dasharray="5,2" d="M340.07,-95.22C387.01,-91.14 462.88,-84.56 521.84,-79.44"/>
<polygon fill="darkgreen" stroke="darkgreen" points="522.24,-82.92 531.9,-78.56 521.63,-75.94 522.24,-82.92"/>
</g>
<!-- vol::/app/.next -->
<g id="node9" class="node">
<title>vol::/app/.next</title>
<path fill="lightgreen" stroke="lightgreen" d="M652.5,-32.73C652.5,-34.53 632.78,-36 608.5,-36 584.22,-36 564.5,-34.53 564.5,-32.73 564.5,-32.73 564.5,-3.27 564.5,-3.27 564.5,-1.47 584.22,0 608.5,0 632.78,0 652.5,-1.47 652.5,-3.27 652.5,-3.27 652.5,-32.73 652.5,-32.73"/>
<path fill="none" stroke="lightgreen" d="M652.5,-32.73C652.5,-30.92 632.78,-29.45 608.5,-29.45 584.22,-29.45 564.5,-30.92 564.5,-32.73"/>
<text text-anchor="middle" x="608.5" y="-14.3" font-family="Times,serif" font-size="14.00">/app/.next</text>
</g>
<!-- video&#45;web&#45;&gt;vol::/app/.next -->
<g id="edge8" class="edge">
<title>video&#45;web&#45;&gt;vol::/app/.next</title>
<path fill="none" stroke="darkgreen" stroke-dasharray="5,2" d="M340.05,-98.27C377,-96.29 430.74,-90.15 474,-72 492.44,-64.26 492.05,-53.82 510,-45 523.83,-38.2 539.64,-32.89 554.44,-28.85"/>
<polygon fill="darkgreen" stroke="darkgreen" points="555.68,-32.14 564.49,-26.25 553.93,-25.36 555.68,-32.14"/>
</g>
<!-- video&#45;cli -->
<g id="node10" class="node">
<title>video&#45;cli</title>
<polygon fill="lightblue" stroke="lightblue" points="78.5,-225 2.5,-225 2.5,-189 78.5,-189 78.5,-225"/>
<text text-anchor="middle" x="40.5" y="-203.3" font-family="Times,serif" font-size="14.00">video&#45;cli</text>
</g>
<!-- video&#45;cli&#45;&gt;vol::/mnt/b/Video/thatdamtoolbox:/data:rw -->
<g id="edge9" class="edge">
<title>video&#45;cli&#45;&gt;vol::/mnt/b/Video/thatdamtoolbox:/data:rw</title>
<path fill="none" stroke="darkgreen" stroke-dasharray="5,2" d="M78.69,-192.09C90.76,-187.69 104.31,-183.2 117,-180 128.92,-176.99 141.39,-174.27 153.94,-171.81"/>
<polygon fill="darkgreen" stroke="darkgreen" points="154.85,-175.21 164.02,-169.9 153.55,-168.33 154.85,-175.21"/>
</g>
<!-- video&#45;cli&#45;&gt;vol::/mnt/b/Video/_INCOMING:/data/_INCOMING:rw -->
<g id="edge10" class="edge">
<title>video&#45;cli&#45;&gt;vol::/mnt/b/Video/_INCOMING:/data/_INCOMING:rw</title>
<path fill="none" stroke="darkgreen" stroke-dasharray="5,2" d="M78.56,-207C87.04,-207 96.61,-207 106.89,-207"/>
<polygon fill="darkgreen" stroke="darkgreen" points="106.96,-210.5 116.96,-207 106.96,-203.5 106.96,-210.5"/>
</g>
<!-- vol::db_wal:/var/lib/thatdamtoolbox/db:rw -->
<g id="node11" class="node">
<title>vol::db_wal:/var/lib/thatdamtoolbox/db:rw</title>
<path fill="lightgreen" stroke="lightgreen" d="M437.5,-275.73C437.5,-277.53 373.85,-279 295.5,-279 217.15,-279 153.5,-277.53 153.5,-275.73 153.5,-275.73 153.5,-246.27 153.5,-246.27 153.5,-244.47 217.15,-243 295.5,-243 373.85,-243 437.5,-244.47 437.5,-246.27 437.5,-246.27 437.5,-275.73 437.5,-275.73"/>
<path fill="none" stroke="lightgreen" d="M437.5,-275.73C437.5,-273.92 373.85,-272.45 295.5,-272.45 217.15,-272.45 153.5,-273.92 153.5,-275.73"/>
<text text-anchor="middle" x="295.5" y="-257.3" font-family="Times,serif" font-size="14.00">db_wal:/var/lib/thatdamtoolbox/db:rw</text>
</g>
<!-- video&#45;cli&#45;&gt;vol::db_wal:/var/lib/thatdamtoolbox/db:rw -->
<g id="edge11" class="edge">
<title>video&#45;cli&#45;&gt;vol::db_wal:/var/lib/thatdamtoolbox/db:rw</title>
<path fill="none" stroke="darkgreen" stroke-dasharray="5,2" d="M78.69,-221.91C90.76,-226.31 104.31,-230.8 117,-234 129.04,-237.04 141.64,-239.79 154.32,-242.26"/>
<polygon fill="darkgreen" stroke="darkgreen" points="154.03,-245.77 164.5,-244.18 155.33,-238.89 154.03,-245.77"/>
</g>
</g>
</svg>
