<?xml version="1.0" encoding="UTF-8" standalone="no"?>
<!DOCTYPE svg PUBLIC "-//W3C//DTD SVG 1.1//EN"
 "http://www.w3.org/Graphics/SVG/1.1/DTD/svg11.dtd">
<!-- Generated by graphviz version 2.43.0 (0)
 -->
<!-- Title: docker_compose Pages: 1 -->
<svg width="772pt" height="368pt"
 viewBox="0.00 0.00 772.00 368.00" xmlns="http://www.w3.org/2000/svg" xmlns:xlink="http://www.w3.org/1999/xlink">
<g id="graph0" class="graph" transform="scale(1 1) rotate(0) translate(4 364)">
<title>docker_compose</title>
<polygon fill="white" stroke="transparent" points="-4,4 -4,-364 768,-364 768,4 -4,4"/>
<!-- video&#45;api -->
<g id="node1" class="node">
<title>video&#45;api</title>
<polygon fill="lightblue" stroke="lightblue" points="81,-252 0,-252 0,-216 81,-216 81,-252"/>
<text text-anchor="middle" x="40.5" y="-230.3" font-family="Times,serif" font-size="14.00">video&#45;api</text>
</g>
<!-- vol::${DATA_ROOT:&#45;./data}:/data:rw -->
<g id="node2" class="node">
<title>vol::${DATA_ROOT:&#45;./data}:/data:rw</title>
<path fill="lightgreen" stroke="lightgreen" d="M446,-356.73C446,-358.53 391.32,-360 324,-360 256.68,-360 202,-358.53 202,-356.73 202,-356.73 202,-327.27 202,-327.27 202,-325.47 256.68,-324 324,-324 391.32,-324 446,-325.47 446,-327.27 446,-327.27 446,-356.73 446,-356.73"/>
<path fill="none" stroke="lightgreen" d="M446,-356.73C446,-354.92 391.32,-353.45 324,-353.45 256.68,-353.45 202,-354.92 202,-356.73"/>
<text text-anchor="middle" x="324" y="-338.3" font-family="Times,serif" font-size="14.00">${DATA_ROOT:&#45;./data}:/data:rw</text>
</g>
<!-- video&#45;api&#45;&gt;vol::${DATA_ROOT:&#45;./data}:/data:rw -->
<g id="edge1" class="edge">
<title>video&#45;api&#45;&gt;vol::${DATA_ROOT:&#45;./data}:/data:rw</title>
<path fill="none" stroke="darkgreen" stroke-dasharray="5,2" d="M52.88,-252.27C65.87,-271.39 88.97,-300.57 117,-315 139.96,-326.82 166.2,-334.14 192.07,-338.56"/>
<polygon fill="darkgreen" stroke="darkgreen" points="191.54,-342.01 201.97,-340.11 192.63,-335.1 191.54,-342.01"/>
</g>
<!-- vol::${INCOMING_ROOT:&#45;./incoming}:/data/_INCOMING:rw -->
<g id="node3" class="node">
<title>vol::${INCOMING_ROOT:&#45;./incoming}:/data/_INCOMING:rw</title>
<path fill="lightgreen" stroke="lightgreen" d="M531,-302.73C531,-304.53 438.22,-306 324,-306 209.78,-306 117,-304.53 117,-302.73 117,-302.73 117,-273.27 117,-273.27 117,-271.47 209.78,-270 324,-270 438.22,-270 531,-271.47 531,-273.27 531,-273.27 531,-302.73 531,-302.73"/>
<path fill="none" stroke="lightgreen" d="M531,-302.73C531,-300.92 438.22,-299.45 324,-299.45 209.78,-299.45 117,-300.92 117,-302.73"/>
<text text-anchor="middle" x="324" y="-284.3" font-family="Times,serif" font-size="14.00">${INCOMING_ROOT:&#45;./incoming}:/data/_INCOMING:rw</text>
</g>
<!-- video&#45;api&#45;&gt;vol::${INCOMING_ROOT:&#45;./incoming}:/data/_INCOMING:rw -->
<g id="edge2" class="edge">
<title>video&#45;api&#45;&gt;vol::${INCOMING_ROOT:&#45;./incoming}:/data/_INCOMING:rw</title>
<path fill="none" stroke="darkgreen" stroke-dasharray="5,2" d="M81.38,-250.05C92.74,-254.13 105.23,-258.16 117,-261 129.03,-263.91 141.55,-266.52 154.19,-268.86"/>
<polygon fill="darkgreen" stroke="darkgreen" points="153.89,-272.36 164.35,-270.69 155.13,-265.47 153.89,-272.36"/>
</g>
<!-- vol::db_wal:/var/lib/thatdamtoolbox/db:rw -->
<g id="node4" class="node">
<title>vol::db_wal:/var/lib/thatdamtoolbox/db:rw</title>
<path fill="lightgreen" stroke="lightgreen" d="M466,-140.73C466,-142.53 402.35,-144 324,-144 245.65,-144 182,-142.53 182,-140.73 182,-140.73 182,-111.27 182,-111.27 182,-109.47 245.65,-108 324,-108 402.35,-108 466,-109.47 466,-111.27 466,-111.27 466,-140.73 466,-140.73"/>
<path fill="none" stroke="lightgreen" d="M466,-140.73C466,-138.92 402.35,-137.45 324,-137.45 245.65,-137.45 182,-138.92 182,-140.73"/>
<text text-anchor="middle" x="324" y="-122.3" font-family="Times,serif" font-size="14.00">db_wal:/var/lib/thatdamtoolbox/db:rw</text>
</g>
<!-- video&#45;api&#45;&gt;vol::db_wal:/var/lib/thatdamtoolbox/db:rw -->
<g id="edge3" class="edge">
<title>video&#45;api&#45;&gt;vol::db_wal:/var/lib/thatdamtoolbox/db:rw</title>
<path fill="none" stroke="darkgreen" stroke-dasharray="5,2" d="M52.88,-215.73C65.87,-196.61 88.97,-167.43 117,-153 134,-144.25 152.79,-137.96 171.91,-133.5"/>
<polygon fill="darkgreen" stroke="darkgreen" points="172.89,-136.87 181.92,-131.33 171.41,-130.03 172.89,-136.87"/>
</g>
<!-- vol::./video:/video:rw -->
<g id="node5" class="node">
<title>vol::./video:/video:rw</title>
<path fill="lightgreen" stroke="lightgreen" d="M391,-248.73C391,-250.53 360.97,-252 324,-252 287.03,-252 257,-250.53 257,-248.73 257,-248.73 257,-219.27 257,-219.27 257,-217.47 287.03,-216 324,-216 360.97,-216 391,-217.47 391,-219.27 391,-219.27 391,-248.73 391,-248.73"/>
<path fill="none" stroke="lightgreen" d="M391,-248.73C391,-246.92 360.97,-245.45 324,-245.45 287.03,-245.45 257,-246.92 257,-248.73"/>
<text text-anchor="middle" x="324" y="-230.3" font-family="Times,serif" font-size="14.00">./video:/video:rw</text>
</g>
<!-- video&#45;api&#45;&gt;vol::./video:/video:rw -->
<g id="edge4" class="edge">
<title>video&#45;api&#45;&gt;vol::./video:/video:rw</title>
<path fill="none" stroke="darkgreen" stroke-dasharray="5,2" d="M81.24,-234C124.09,-234 193.35,-234 246.78,-234"/>
<polygon fill="darkgreen" stroke="darkgreen" points="246.9,-237.5 256.9,-234 246.9,-230.5 246.9,-237.5"/>
</g>
<!-- video&#45;web -->
<g id="node6" class="node">
<title>video&#45;web</title>
<polygon fill="lightblue" stroke="lightblue" points="368.5,-198 279.5,-198 279.5,-162 368.5,-162 368.5,-198"/>
<text text-anchor="middle" x="324" y="-176.3" font-family="Times,serif" font-size="14.00">video&#45;web</text>
</g>
<!-- video&#45;api&#45;&gt;video&#45;web -->
<g id="edge5" class="edge">
<title>video&#45;api&#45;&gt;video&#45;web</title>
<path fill="none" stroke="black" d="M81.38,-217.95C92.74,-213.87 105.23,-209.84 117,-207 167.85,-194.72 227.21,-187.69 269.11,-183.9"/>
<polygon fill="black" stroke="black" points="269.44,-187.38 279.1,-183.03 268.84,-180.41 269.44,-187.38"/>
</g>
<!-- net::damnet -->
<g id="node7" class="node">
<title>net::damnet</title>
<ellipse fill="lightgray" stroke="lightgray" cx="665.5" cy="-261" rx="46.29" ry="18"/>
<text text-anchor="middle" x="665.5" y="-257.3" font-family="Times,serif" font-size="14.00">damnet</text>
</g>
<!-- video&#45;web&#45;&gt;net::damnet -->
<g id="edge6" class="edge">
<title>video&#45;web&#45;&gt;net::damnet</title>
<path fill="none" stroke="gray" stroke-dasharray="1,5" d="M368.84,-179.38C411.7,-180.22 478.06,-185.43 531,-207 549.52,-214.55 549.05,-225.18 567,-234 581.48,-241.12 598.13,-246.6 613.52,-250.71"/>
<polygon fill="gray" stroke="gray" points="612.86,-254.16 623.42,-253.22 614.58,-247.37 612.86,-254.16"/>
</g>
<!-- vol::./docker/web&#45;app:/app:rw -->
<g id="node8" class="node">
<title>vol::./docker/web&#45;app:/app:rw</title>
<path fill="lightgreen" stroke="lightgreen" d="M764,-221.73C764,-223.53 719.85,-225 665.5,-225 611.15,-225 567,-223.53 567,-221.73 567,-221.73 567,-192.27 567,-192.27 567,-190.47 611.15,-189 665.5,-189 719.85,-189 764,-190.47 764,-192.27 764,-192.27 764,-221.73 764,-221.73"/>
<path fill="none" stroke="lightgreen" d="M764,-221.73C764,-219.92 719.85,-218.45 665.5,-218.45 611.15,-218.45 567,-219.92 567,-221.73"/>
<text text-anchor="middle" x="665.5" y="-203.3" font-family="Times,serif" font-size="14.00">./docker/web&#45;app:/app:rw</text>
</g>
<!-- video&#45;web&#45;&gt;vol::./docker/web&#45;app:/app:rw -->
<g id="edge7" class="edge">
<title>video&#45;web&#45;&gt;vol::./docker/web&#45;app:/app:rw</title>
<path fill="none" stroke="darkgreen" stroke-dasharray="5,2" d="M368.69,-183.47C415.95,-187.23 493.07,-193.37 556.72,-198.43"/>
<polygon fill="darkgreen" stroke="darkgreen" points="556.57,-201.93 566.81,-199.23 557.12,-194.95 556.57,-201.93"/>
</g>
<!-- vol::/app/node_modules -->
<g id="node9" class="node">
<title>vol::/app/node_modules</title>
<path fill="lightgreen" stroke="lightgreen" d="M742,-167.73C742,-169.53 707.71,-171 665.5,-171 623.29,-171 589,-169.53 589,-167.73 589,-167.73 589,-138.27 589,-138.27 589,-136.47 623.29,-135 665.5,-135 707.71,-135 742,-136.47 742,-138.27 742,-138.27 742,-167.73 742,-167.73"/>
<path fill="none" stroke="lightgreen" d="M742,-167.73C742,-165.92 707.71,-164.45 665.5,-164.45 623.29,-164.45 589,-165.92 589,-167.73"/>
<text text-anchor="middle" x="665.5" y="-149.3" font-family="Times,serif" font-size="14.00">/app/node_modules</text>
</g>
<!-- video&#45;web&#45;&gt;vol::/app/node_modules -->
<g id="edge8" class="edge">
<title>video&#45;web&#45;&gt;vol::/app/node_modules</title>
<path fill="none" stroke="darkgreen" stroke-dasharray="5,2" d="M368.69,-176.53C421.58,-172.32 511.88,-165.14 578.83,-159.81"/>
<polygon fill="darkgreen" stroke="darkgreen" points="579.26,-163.29 588.95,-159.01 578.7,-156.31 579.26,-163.29"/>
</g>
<!-- vol::/app/.next -->
<g id="node10" class="node">
<title>vol::/app/.next</title>
<path fill="lightgreen" stroke="lightgreen" d="M709.5,-113.73C709.5,-115.53 689.78,-117 665.5,-117 641.22,-117 621.5,-115.53 621.5,-113.73 621.5,-113.73 621.5,-84.27 621.5,-84.27 621.5,-82.47 641.22,-81 665.5,-81 689.78,-81 709.5,-82.47 709.5,-84.27 709.5,-84.27 709.5,-113.73 709.5,-113.73"/>
<path fill="none" stroke="lightgreen" d="M709.5,-113.73C709.5,-111.92 689.78,-110.45 665.5,-110.45 641.22,-110.45 621.5,-111.92 621.5,-113.73"/>
<text text-anchor="middle" x="665.5" y="-95.3" font-family="Times,serif" font-size="14.00">/app/.next</text>
</g>
<!-- video&#45;web&#45;&gt;vol::/app/.next -->
<g id="edge9" class="edge">
<title>video&#45;web&#45;&gt;vol::/app/.next</title>
<path fill="none" stroke="darkgreen" stroke-dasharray="5,2" d="M368.84,-180.62C411.7,-179.78 478.06,-174.57 531,-153 549.52,-145.45 549.05,-134.82 567,-126 580.83,-119.2 596.64,-113.89 611.44,-109.85"/>
<polygon fill="darkgreen" stroke="darkgreen" points="612.68,-113.14 621.49,-107.25 610.93,-106.36 612.68,-113.14"/>
</g>
<!-- video&#45;cli -->
<g id="node11" class="node">
<title>video&#45;cli</title>
<polygon fill="lightblue" stroke="lightblue" points="78.5,-90 2.5,-90 2.5,-54 78.5,-54 78.5,-90"/>
<text text-anchor="middle" x="40.5" y="-68.3" font-family="Times,serif" font-size="14.00">video&#45;cli</text>
</g>
<!-- video&#45;cli&#45;&gt;vol::db_wal:/var/lib/thatdamtoolbox/db:rw -->
<g id="edge12" class="edge">
<title>video&#45;cli&#45;&gt;vol::db_wal:/var/lib/thatdamtoolbox/db:rw</title>
<path fill="none" stroke="darkgreen" stroke-dasharray="5,2" d="M78.66,-87.06C90.72,-91.47 104.28,-95.93 117,-99 134.61,-103.25 153.24,-106.87 171.81,-109.95"/>
<polygon fill="darkgreen" stroke="darkgreen" points="171.38,-113.43 181.81,-111.56 172.49,-106.51 171.38,-113.43"/>
</g>
<!-- vol::/mnt/b/Video/thatdamtoolbox:/data:rw -->
<g id="node12" class="node">
<title>vol::/mnt/b/Video/thatdamtoolbox:/data:rw</title>
<path fill="lightgreen" stroke="lightgreen" d="M468,-86.73C468,-88.53 403.46,-90 324,-90 244.54,-90 180,-88.53 180,-86.73 180,-86.73 180,-57.27 180,-57.27 180,-55.47 244.54,-54 324,-54 403.46,-54 468,-55.47 468,-57.27 468,-57.27 468,-86.73 468,-86.73"/>
<path fill="none" stroke="lightgreen" d="M468,-86.73C468,-84.92 403.46,-83.45 324,-83.45 244.54,-83.45 180,-84.92 180,-86.73"/>
<text text-anchor="middle" x="324" y="-68.3" font-family="Times,serif" font-size="14.00">/mnt/b/Video/thatdamtoolbox:/data:rw</text>
</g>
<!-- video&#45;cli&#45;&gt;vol::/mnt/b/Video/thatdamtoolbox:/data:rw -->
<g id="edge10" class="edge">
<title>video&#45;cli&#45;&gt;vol::/mnt/b/Video/thatdamtoolbox:/data:rw</title>
<path fill="none" stroke="darkgreen" stroke-dasharray="5,2" d="M78.59,-72C102.64,-72 135.75,-72 169.85,-72"/>
<polygon fill="darkgreen" stroke="darkgreen" points="169.96,-75.5 179.96,-72 169.96,-68.5 169.96,-75.5"/>
</g>
<!-- vol::/mnt/b/Video/_INCOMING:/data/_INCOMING:rw -->
<g id="node13" class="node">
<title>vol::/mnt/b/Video/_INCOMING:/data/_INCOMING:rw</title>
<path fill="lightgreen" stroke="lightgreen" d="M502.5,-32.73C502.5,-34.53 422.49,-36 324,-36 225.51,-36 145.5,-34.53 145.5,-32.73 145.5,-32.73 145.5,-3.27 145.5,-3.27 145.5,-1.47 225.51,0 324,0 422.49,0 502.5,-1.47 502.5,-3.27 502.5,-3.27 502.5,-32.73 502.5,-32.73"/>
<path fill="none" stroke="lightgreen" d="M502.5,-32.73C502.5,-30.92 422.49,-29.45 324,-29.45 225.51,-29.45 145.5,-30.92 145.5,-32.73"/>
<text text-anchor="middle" x="324" y="-14.3" font-family="Times,serif" font-size="14.00">/mnt/b/Video/_INCOMING:/data/_INCOMING:rw</text>
</g>
<!-- video&#45;cli&#45;&gt;vol::/mnt/b/Video/_INCOMING:/data/_INCOMING:rw -->
<g id="edge11" class="edge">
<title>video&#45;cli&#45;&gt;vol::/mnt/b/Video/_INCOMING:/data/_INCOMING:rw</title>
<path fill="none" stroke="darkgreen" stroke-dasharray="5,2" d="M78.66,-56.94C90.72,-52.53 104.28,-48.07 117,-45 129.84,-41.9 143.22,-39.14 156.72,-36.67"/>
<polygon fill="darkgreen" stroke="darkgreen" points="157.33,-40.12 166.57,-34.93 156.11,-33.23 157.33,-40.12"/>
</g>
</g>
</svg>
